<?xml version="1.0" standalone="no"?>
<!DOCTYPE svg PUBLIC "-//W3C//DTD SVG 20010904//EN"
 "http://www.w3.org/TR/2001/REC-SVG-20010904/DTD/svg10.dtd">
<svg version="1.0" xmlns="http://www.w3.org/2000/svg"
 width="700.000000pt" height="700.000000pt" viewBox="0 0 700.000000 700.000000"
 preserveAspectRatio="xMidYMid meet">
<metadata>
Created by potrace 1.14, written by Peter Selinger 2001-2017
</metadata>
<g transform="translate(0.000000,700.000000) scale(0.100000,-0.100000)"
fill="#000000" stroke="none">
<path d="M3499 6280 c-184 -17 -423 -107 -564 -214 -298 -226 -463 -541 -482
-918 l-6 -118 -79 0 -78 0 0 -1025 0 -1025 1320 0 1320 0 0 1025 0 1025 -85 0
-85 0 0 98 c0 480 -314 926 -764 1087 -158 57 -333 79 -497 65z m295 -355
c143 -37 252 -97 358 -194 185 -171 281 -409 269 -668 l-1 -33 -816 0 -817 0
6 113 c7 134 26 213 79 327 140 302 445 491 768 475 52 -3 122 -12 154 -20z"/>
<path d="M1810 1625 l0 -505 -160 0 -160 0 0 100 0 100 -165 0 -165 0 0 -167
c0 -155 2 -172 24 -219 27 -59 90 -116 145 -132 25 -8 137 -12 327 -12 283 0
290 1 340 24 28 13 65 41 82 62 62 76 62 70 62 691 l0 563 -165 0 -165 0 0
-505z"/>
<path d="M3400 1460 l0 -670 165 0 165 0 0 219 0 220 263 3 262 3 57 28 c65
32 122 90 150 155 50 112 46 430 -6 537 -31 62 -89 118 -155 149 -44 20 -61
21 -473 24 l-428 3 0 -671z m755 220 l0 -115 -212 -3 -213 -2 0 120 0 120 213
-2 212 -3 0 -115z"/>
<path d="M2510 1821 c-69 -21 -121 -65 -156 -131 -16 -30 -19 -58 -19 -200 0
-163 0 -166 28 -213 35 -60 93 -102 158 -116 27 -6 120 -11 204 -11 148 0 155
-1 155 -20 0 -20 -7 -20 -275 -20 l-275 0 0 -160 0 -160 343 0 c338 0 343 0
392 24 55 25 96 67 122 125 13 28 17 70 17 191 1 151 0 157 -27 213 -30 60
-80 103 -146 125 -20 7 -101 12 -202 12 -106 0 -169 4 -169 10 0 6 92 10 255
10 l255 0 0 165 0 165 -317 -1 c-175 0 -329 -4 -343 -8z"/>
<path d="M4670 1313 l168 -518 147 0 147 0 64 209 c34 114 65 210 68 213 2 3
14 -26 25 -64 11 -37 40 -133 65 -213 l44 -145 147 0 147 0 168 518 167 517
-169 -2 -170 -3 -44 -140 c-24 -77 -56 -177 -70 -223 -14 -46 -28 -82 -30 -79
-4 3 -30 91 -115 380 l-20 67 -144 0 -144 0 -21 -72 c-12 -40 -32 -109 -45
-153 -13 -44 -33 -113 -45 -153 -12 -41 -23 -72 -26 -69 -2 2 -35 103 -73 223
l-69 219 -170 3 -169 2 167 -517z"/>
</g>
</svg>
