<svg width="145" height="145" viewBox="0 0 145 145" fill="none" xmlns="http://www.w3.org/2000/svg">
<rect width="145" height="145" fill="#F4F839"/>
<path fill-rule="evenodd" clip-rule="evenodd" d="M57.8409 40.8648H91.5979C91.6458 40.329 91.6703 39.7856 91.6703 39.2356C91.6703 29.4699 83.9484 21.7959 74.7194 21.7959C65.4903 21.7959 57.7685 29.4699 57.7685 39.2356C57.7685 39.7856 57.793 40.329 57.8409 40.8648ZM50.8208 40.8648C50.7861 40.3263 50.7685 39.7831 50.7685 39.2356C50.7685 25.7379 61.4917 14.7959 74.7194 14.7959C87.9471 14.7959 98.6703 25.7379 98.6703 39.2356C98.6703 39.7831 98.6526 40.3263 98.6179 40.8648H102.092V83.2269H47.3469V40.8648H50.8208Z" fill="black"/>
<path d="M25.7027 119.292H29.2061V123.497H39.1182V102.493H42.6217V123.497C42.6217 123.975 42.5248 124.431 42.3311 124.864C42.1488 125.285 41.8982 125.656 41.5792 125.975C41.2716 126.294 40.9013 126.544 40.4683 126.727C40.0468 126.909 39.5967 127 39.1182 127H29.2061C28.7276 127 28.2719 126.909 27.8389 126.727C27.4174 126.544 27.0471 126.294 26.7281 125.975C26.4205 125.656 26.1698 125.285 25.9761 124.864C25.7939 124.431 25.7027 123.975 25.7027 123.497V119.292ZM61.3248 123.633V119.412H53.3438C52.8767 119.412 52.4381 119.327 52.0279 119.156C51.6177 118.973 51.2589 118.734 50.9512 118.438C50.655 118.13 50.4158 117.771 50.2335 117.361C50.0626 116.951 49.9771 116.513 49.9771 116.045V112.166C49.9771 111.699 50.0626 111.26 50.2335 110.85C50.4158 110.44 50.655 110.087 50.9512 109.791C51.2589 109.483 51.6177 109.244 52.0279 109.073C52.4381 108.89 52.8767 108.799 53.3438 108.799H63.9908V112.166H53.3438V116.045H61.3248C61.7919 116.045 62.2248 116.137 62.6236 116.319C63.0338 116.49 63.3926 116.729 63.7003 117.037C64.0079 117.333 64.2471 117.686 64.418 118.096C64.6003 118.506 64.6915 118.945 64.6915 119.412V123.633C64.6915 124.1 64.6003 124.539 64.418 124.949C64.2471 125.359 64.0079 125.718 63.7003 126.026C63.3926 126.322 63.0338 126.561 62.6236 126.744C62.2248 126.915 61.7919 127 61.3248 127H49.9771V123.633H61.3248ZM72.0469 127V102.493H85.4625C89.4273 102.493 91.4097 104.481 91.4097 108.458V111.944C91.4097 115.92 89.4273 117.908 85.4625 117.908H75.5504V127H72.0469ZM75.5504 114.405H85.2745C86.2087 114.405 86.8809 114.2 87.2911 113.79C87.7012 113.379 87.9063 112.707 87.9063 111.773V108.628C87.9063 107.694 87.7012 107.022 87.2911 106.612C86.8809 106.202 86.2087 105.997 85.2745 105.997H75.5504V114.405ZM101.5 127L95.6207 108.799H99.0216L103.328 122.522L107.344 108.799H110.779L114.795 122.522L119.102 108.799H122.503L116.624 127H113.121L109.053 113.636L105.003 127H101.5Z" fill="black"/>
<path d="M25.7027 119.292V117.592H24.0027V119.292H25.7027ZM29.2061 119.292H30.9061V117.592H29.2061V119.292ZM29.2061 123.497H27.5061V125.197H29.2061V123.497ZM39.1182 123.497V125.197H40.8182V123.497H39.1182ZM39.1182 102.493V100.793H37.4182V102.493H39.1182ZM42.6217 102.493H44.3217V100.793H42.6217V102.493ZM42.3311 124.864L40.7793 124.17L40.775 124.179L40.7708 124.189L42.3311 124.864ZM41.5792 125.975L40.3771 124.773L40.3662 124.783L40.3554 124.795L41.5792 125.975ZM40.4683 126.727L39.8086 125.16L39.8011 125.163L39.7936 125.166L40.4683 126.727ZM27.8389 126.727L27.1642 128.287L27.1717 128.29L27.1792 128.293L27.8389 126.727ZM26.7281 125.975L25.5044 127.155L25.5151 127.166L25.526 127.177L26.7281 125.975ZM25.9761 124.864L24.4094 125.523L24.42 125.549L24.4314 125.574L25.9761 124.864ZM25.7027 120.992H29.2061V117.592H25.7027V120.992ZM27.5061 119.292V123.497H30.9061V119.292H27.5061ZM29.2061 125.197H39.1182V121.797H29.2061V125.197ZM40.8182 123.497V102.493H37.4182V123.497H40.8182ZM39.1182 104.193H42.6217V100.793H39.1182V104.193ZM40.9217 102.493V123.497H44.3217V102.493H40.9217ZM40.9217 123.497C40.9217 123.738 40.8744 123.957 40.7793 124.17L43.8829 125.558C44.1752 124.905 44.3217 124.212 44.3217 123.497H40.9217ZM40.7708 124.189C40.672 124.417 40.5417 124.608 40.3771 124.773L42.7813 127.177C43.2546 126.703 43.6257 126.153 43.8915 125.539L40.7708 124.189ZM40.3554 124.795C40.2172 124.938 40.0422 125.061 39.8086 125.16L41.128 128.293C41.7603 128.027 42.3259 127.649 42.8029 127.155L40.3554 124.795ZM39.7936 125.166C39.594 125.253 39.3746 125.3 39.1182 125.3V128.7C39.8189 128.7 40.4996 128.565 41.1431 128.287L39.7936 125.166ZM39.1182 125.3H29.2061V128.7H39.1182V125.3ZM29.2061 125.3C28.9499 125.3 28.7188 125.252 28.4986 125.16L27.1792 128.293C27.825 128.565 28.5054 128.7 29.2061 128.7V125.3ZM28.5137 125.166C28.2853 125.067 28.0948 124.937 27.9302 124.773L25.526 127.177C25.9994 127.65 26.5495 128.021 27.1642 128.287L28.5137 125.166ZM27.9518 124.795C27.783 124.62 27.6385 124.41 27.5209 124.154L24.4314 125.574C24.7011 126.161 25.0579 126.692 25.5044 127.155L27.9518 124.795ZM27.5429 124.204C27.4502 123.984 27.4027 123.753 27.4027 123.497H24.0027C24.0027 124.197 24.1375 124.878 24.4094 125.523L27.5429 124.204ZM27.4027 123.497V119.292H24.0027V123.497H27.4027ZM61.3248 123.633V125.333H63.0248V123.633H61.3248ZM61.3248 119.412H63.0248V117.712H61.3248V119.412ZM52.0279 119.156L51.3375 120.709L51.3557 120.717L51.3741 120.725L52.0279 119.156ZM50.9512 118.438L49.7267 119.617L49.7489 119.64L49.772 119.663L50.9512 118.438ZM50.2335 117.361L48.6642 118.015L48.6719 118.034L48.68 118.052L50.2335 117.361ZM50.2335 110.85L48.68 110.16L48.6719 110.178L48.6642 110.196L50.2335 110.85ZM50.9512 109.791L49.7492 108.588L50.9512 109.791ZM52.0279 109.073L52.6817 110.642L52.7001 110.634L52.7183 110.626L52.0279 109.073ZM63.9908 108.799H65.6908V107.099H63.9908V108.799ZM63.9908 112.166V113.866H65.6908V112.166H63.9908ZM53.3438 112.166V110.466H51.6438V112.166H53.3438ZM53.3438 116.045H51.6438V117.745H53.3438V116.045ZM62.6236 116.319L61.9168 117.865L61.9431 117.877L61.9698 117.888L62.6236 116.319ZM63.7003 117.037L62.4982 118.239L62.5095 118.25L62.5211 118.261L63.7003 117.037ZM64.418 118.096L62.8488 118.75L62.8565 118.768L62.8646 118.787L64.418 118.096ZM64.418 124.949L62.8646 124.259L62.8565 124.277L62.8488 124.295L64.418 124.949ZM63.7003 126.026L64.8795 127.25L64.891 127.239L64.9023 127.228L63.7003 126.026ZM62.6236 126.744L63.2933 128.306L63.3037 128.302L63.314 128.297L62.6236 126.744ZM49.9771 127H48.2771V128.7H49.9771V127ZM49.9771 123.633V121.933H48.2771V123.633H49.9771ZM63.0248 123.633V119.412H59.6248V123.633H63.0248ZM61.3248 117.712H53.3438V121.112H61.3248V117.712ZM53.3438 117.712C53.0894 117.712 52.8742 117.667 52.6817 117.587L51.3741 120.725C52.0019 120.987 52.664 121.112 53.3438 121.112V117.712ZM52.7183 117.602C52.4797 117.496 52.2884 117.366 52.1304 117.213L49.772 119.663C50.2294 120.103 50.7558 120.451 51.3375 120.709L52.7183 117.602ZM52.1758 117.259C52.0237 117.101 51.893 116.91 51.7869 116.671L48.68 118.052C48.9385 118.633 49.2863 119.16 49.7267 119.617L52.1758 117.259ZM51.8027 116.707C51.7225 116.515 51.6771 116.3 51.6771 116.045H48.2771C48.2771 116.725 48.4026 117.387 48.6642 118.015L51.8027 116.707ZM51.6771 116.045V112.166H48.2771V116.045H51.6771ZM51.6771 112.166C51.6771 111.912 51.7225 111.696 51.8027 111.504L48.6642 110.196C48.4026 110.824 48.2771 111.486 48.2771 112.166H51.6771ZM51.7869 111.541C51.8906 111.307 52.0149 111.131 52.1533 110.993L49.7492 108.588C49.2951 109.042 48.9409 109.573 48.68 110.16L51.7869 111.541ZM52.1533 110.993C52.3005 110.845 52.4721 110.729 52.6817 110.642L51.3741 107.504C50.7634 107.758 50.2172 108.12 49.7492 108.588L52.1533 110.993ZM52.7183 110.626C52.9023 110.544 53.1046 110.499 53.3438 110.499V107.099C52.6487 107.099 51.9739 107.236 51.3375 107.519L52.7183 110.626ZM53.3438 110.499H63.9908V107.099H53.3438V110.499ZM62.2908 108.799V112.166H65.6908V108.799H62.2908ZM63.9908 110.466H53.3438V113.866H63.9908V110.466ZM51.6438 112.166V116.045H55.0438V112.166H51.6438ZM53.3438 117.745H61.3248V114.345H53.3438V117.745ZM61.3248 117.745C61.5642 117.745 61.7542 117.791 61.9168 117.865L63.3304 114.773C62.6955 114.482 62.0196 114.345 61.3248 114.345V117.745ZM61.9698 117.888C62.1794 117.975 62.351 118.091 62.4982 118.239L64.9023 115.835C64.4343 115.367 63.8881 115.004 63.2774 114.75L61.9698 117.888ZM62.5211 118.261C62.6542 118.389 62.7638 118.546 62.8488 118.75L65.9873 117.442C65.7305 116.826 65.3616 116.276 64.8795 115.812L62.5211 118.261ZM62.8646 118.787C62.9463 118.971 62.9915 119.173 62.9915 119.412H66.3915C66.3915 118.717 66.2544 118.042 65.9715 117.406L62.8646 118.787ZM62.9915 119.412V123.633H66.3915V119.412H62.9915ZM62.9915 123.633C62.9915 123.872 62.9463 124.075 62.8646 124.259L65.9715 125.64C66.2544 125.003 66.3915 124.328 66.3915 123.633H62.9915ZM62.8488 124.295C62.7614 124.505 62.6454 124.677 62.4982 124.824L64.9023 127.228C65.3704 126.76 65.7328 126.214 65.9873 125.603L62.8488 124.295ZM62.5211 124.801C62.3632 124.953 62.1718 125.084 61.9332 125.19L63.314 128.297C63.8957 128.039 64.4221 127.691 64.8795 127.25L62.5211 124.801ZM61.9539 125.181C61.7826 125.255 61.5795 125.3 61.3248 125.3V128.7C62.0043 128.7 62.6671 128.575 63.2933 128.306L61.9539 125.181ZM61.3248 125.3H49.9771V128.7H61.3248V125.3ZM51.6771 127V123.633H48.2771V127H51.6771ZM49.9771 125.333H61.3248V121.933H49.9771V125.333ZM72.0469 127H70.3469V128.7H72.0469V127ZM72.0469 102.493V100.793H70.3469V102.493H72.0469ZM75.5504 117.908V116.208H73.8504V117.908H75.5504ZM75.5504 127V128.7H77.2504V127H75.5504ZM75.5504 114.405H73.8504V116.105H75.5504V114.405ZM75.5504 105.997V104.297H73.8504V105.997H75.5504ZM73.7469 127V102.493H70.3469V127H73.7469ZM72.0469 104.193H85.4625V100.793H72.0469V104.193ZM85.4625 104.193C87.1816 104.193 88.159 104.623 88.7191 105.185C89.2801 105.747 89.7097 106.73 89.7097 108.458H93.1097C93.1097 106.209 92.5481 104.209 91.1267 102.784C89.7044 101.358 87.7082 100.793 85.4625 100.793V104.193ZM89.7097 108.458V111.944H93.1097V108.458H89.7097ZM89.7097 111.944C89.7097 113.671 89.2801 114.654 88.7191 115.217C88.159 115.778 87.1816 116.208 85.4625 116.208V119.608C87.7082 119.608 89.7044 119.044 91.1267 117.617C92.5481 116.192 93.1097 114.193 93.1097 111.944H89.7097ZM85.4625 116.208H75.5504V119.608H85.4625V116.208ZM73.8504 117.908V127H77.2504V117.908H73.8504ZM75.5504 125.3H72.0469V128.7H75.5504V125.3ZM75.5504 116.105H85.2745V112.705H75.5504V116.105ZM85.2745 116.105C86.3954 116.105 87.6164 115.868 88.4932 114.992L86.089 112.587C86.1185 112.558 86.1087 112.587 85.9832 112.625C85.8509 112.665 85.6252 112.705 85.2745 112.705V116.105ZM88.4932 114.992C89.3699 114.115 89.6063 112.894 89.6063 111.773H86.2063C86.2063 112.124 86.1669 112.349 86.1265 112.482C86.0882 112.607 86.0595 112.617 86.089 112.587L88.4932 114.992ZM89.6063 111.773V108.628H86.2063V111.773H89.6063ZM89.6063 108.628C89.6063 107.508 89.3699 106.286 88.4932 105.41L86.089 107.814C86.0595 107.784 86.0882 107.794 86.1265 107.92C86.1669 108.052 86.2063 108.278 86.2063 108.628H89.6063ZM88.4932 105.41C87.6164 104.533 86.3954 104.297 85.2745 104.297V107.697C85.6252 107.697 85.8509 107.736 85.9832 107.776C86.1087 107.815 86.1185 107.843 86.089 107.814L88.4932 105.41ZM85.2745 104.297H75.5504V107.697H85.2745V104.297ZM73.8504 105.997V114.405H77.2504V105.997H73.8504ZM101.5 127L99.8819 127.523L100.262 128.7H101.5V127ZM95.6207 108.799V107.099H93.2851L94.003 109.322L95.6207 108.799ZM99.0216 108.799L100.644 108.29L100.27 107.099H99.0216V108.799ZM103.328 122.522L101.706 123.031L103.385 128.381L104.96 123L103.328 122.522ZM107.344 108.799V107.099H106.071L105.713 108.322L107.344 108.799ZM110.779 108.799L112.411 108.322L112.053 107.099H110.779V108.799ZM114.795 122.522L113.164 123L114.739 128.381L116.417 123.031L114.795 122.522ZM119.102 108.799V107.099H117.854L117.48 108.29L119.102 108.799ZM122.503 108.799L124.121 109.322L124.839 107.099H122.503V108.799ZM116.624 127V128.7H117.861L118.242 127.523L116.624 127ZM113.121 127L111.494 127.495L111.861 128.7H113.121V127ZM109.053 113.636L110.68 113.141L109.05 107.786L107.426 113.143L109.053 113.636ZM105.003 127V128.7H106.264L106.63 127.493L105.003 127ZM103.117 126.477L97.2384 108.277L94.003 109.322L99.8819 127.523L103.117 126.477ZM95.6207 110.499H99.0216V107.099H95.6207V110.499ZM97.3995 109.308L101.706 123.031L104.95 122.013L100.644 108.29L97.3995 109.308ZM104.96 123L108.976 109.277L105.713 108.322L101.697 122.045L104.96 123ZM107.344 110.499H110.779V107.099H107.344V110.499ZM109.148 109.277L113.164 123L116.427 122.045L112.411 108.322L109.148 109.277ZM116.417 123.031L120.724 109.308L117.48 108.29L113.173 122.013L116.417 123.031ZM119.102 110.499H122.503V107.099H119.102V110.499ZM120.885 108.277L115.006 126.477L118.242 127.523L124.121 109.322L120.885 108.277ZM116.624 125.3H113.121V128.7H116.624V125.3ZM114.747 126.505L110.68 113.141L107.427 114.131L111.494 127.495L114.747 126.505ZM107.426 113.143L103.376 126.507L106.63 127.493L110.68 114.129L107.426 113.143ZM105.003 125.3H101.5V128.7H105.003V125.3Z" fill="black"/>
</svg>
