<svg xmlns="http://www.w3.org/2000/svg" width="145" height="145" fill="none" viewBox="0 0 145 145"><rect width="145" height="145" fill="#F4F839" rx="10"/><path fill="#000" fill-rule="evenodd" d="M57.8408 46.8648H91.5979C91.6458 46.329 91.6702 45.7856 91.6702 45.2356C91.6702 35.4699 83.9484 27.7959 74.7194 27.7959C65.4903 27.7959 57.7685 35.4699 57.7685 45.2356C57.7685 45.7856 57.793 46.329 57.8408 46.8648ZM50.8208 46.8648C50.7861 46.3263 50.7685 45.783 50.7685 45.2356C50.7685 31.7379 61.4916 20.7959 74.7194 20.7959C87.9471 20.7959 98.6702 31.7379 98.6702 45.2356C98.6702 45.783 98.6526 46.3263 98.6179 46.8648H102.092V89.2269H47.3469V46.8648H50.8208Z" clip-rule="evenodd"/><path fill="#000" d="M23.3608 133V108.493H36.7764C40.7412 108.493 42.7236 110.481 42.7236 114.458V117.944C42.7236 121.92 40.7412 123.908 36.7764 123.908H26.8643V133H23.3608ZM26.8643 120.405H36.5884C37.5226 120.405 38.1948 120.2 38.605 119.79C39.0151 119.379 39.2202 118.707 39.2202 117.773V114.628C39.2202 113.694 39.0151 113.022 38.605 112.612C38.1948 112.202 37.5226 111.997 36.5884 111.997H26.8643V120.405ZM52.8135 133L46.9346 114.799H50.3354L54.6421 128.522L58.6582 114.799H62.0933L66.1094 128.522L70.416 114.799H73.8169L67.938 133H64.4346L60.3672 119.636L56.3169 133H52.8135ZM78.7285 125.292H82.2319V129.497H92.144V108.493H95.6475V129.497C95.6475 129.975 95.5506 130.431 95.3569 130.864C95.1746 131.285 94.924 131.656 94.605 131.975C94.2974 132.294 93.9271 132.544 93.4941 132.727C93.0726 132.909 92.6226 133 92.144 133H82.2319C81.7534 133 81.2977 132.909 80.8647 132.727C80.4432 132.544 80.0729 132.294 79.7539 131.975C79.4463 131.656 79.1956 131.285 79.002 130.864C78.8197 130.431 78.7285 129.975 78.7285 129.497V125.292ZM107.207 122.507C106.729 122.507 106.273 122.416 105.84 122.233C105.418 122.04 105.048 121.789 104.729 121.481C104.41 121.162 104.159 120.792 103.977 120.371C103.795 119.938 103.704 119.482 103.704 119.003V111.997C103.704 111.518 103.795 111.068 103.977 110.646C104.159 110.214 104.41 109.843 104.729 109.536C105.048 109.217 105.418 108.966 105.84 108.784C106.273 108.59 106.729 108.493 107.207 108.493H119.102C119.58 108.493 120.03 108.59 120.452 108.784C120.885 108.966 121.261 109.217 121.58 109.536C121.899 109.843 122.149 110.214 122.332 110.646C122.514 111.068 122.605 111.518 122.605 111.997V115.158H119.102V111.997H107.207V119.003H119.102C119.58 119.003 120.03 119.095 120.452 119.277C120.885 119.459 121.261 119.71 121.58 120.029C121.899 120.348 122.149 120.724 122.332 121.157C122.514 121.578 122.605 122.028 122.605 122.507V129.497C122.605 129.975 122.514 130.431 122.332 130.864C122.149 131.285 121.899 131.656 121.58 131.975C121.261 132.294 120.885 132.544 120.452 132.727C120.03 132.909 119.58 133 119.102 133H106.865C106.387 133 105.931 132.909 105.498 132.727C105.076 132.544 104.706 132.294 104.387 131.975C104.068 131.656 103.818 131.285 103.635 130.864C103.453 130.431 103.362 129.975 103.362 129.497V126.352H106.865V129.497H119.102V122.507H107.207Z"/><path fill="#000" d="M23.3608 133H21.6608V134.7H23.3608V133ZM23.3608 108.493V106.793H21.6608V108.493H23.3608ZM26.8643 123.908V122.208H25.1643V123.908H26.8643ZM26.8643 133V134.7H28.5643V133H26.8643ZM26.8643 120.405H25.1643V122.105H26.8643V120.405ZM26.8643 111.997V110.297H25.1643V111.997H26.8643ZM25.0608 133V108.493H21.6608V133H25.0608ZM23.3608 110.193H36.7764V106.793H23.3608V110.193ZM36.7764 110.193C38.4955 110.193 39.4729 110.623 40.033 111.185C40.594 111.747 41.0236 112.73 41.0236 114.458H44.4236C44.4236 112.209 43.862 110.209 42.4406 108.784C41.0183 107.358 39.0221 106.793 36.7764 106.793V110.193ZM41.0236 114.458V117.944H44.4236V114.458H41.0236ZM41.0236 117.944C41.0236 119.671 40.594 120.654 40.033 121.217C39.4729 121.778 38.4955 122.208 36.7764 122.208V125.608C39.0221 125.608 41.0183 125.044 42.4406 123.617C43.862 122.192 44.4236 120.193 44.4236 117.944H41.0236ZM36.7764 122.208H26.8643V125.608H36.7764V122.208ZM25.1643 123.908V133H28.5643V123.908H25.1643ZM26.8643 131.3H23.3608V134.7H26.8643V131.3ZM26.8643 122.105H36.5884V118.705H26.8643V122.105ZM36.5884 122.105C37.7093 122.105 38.9303 121.868 39.8071 120.992L37.4029 118.587C37.4324 118.558 37.4226 118.587 37.2971 118.625C37.1648 118.665 36.9391 118.705 36.5884 118.705V122.105ZM39.8071 120.992C40.6838 120.115 40.9202 118.894 40.9202 117.773H37.5202C37.5202 118.124 37.4808 118.349 37.4404 118.482C37.4021 118.607 37.3734 118.617 37.4029 118.587L39.8071 120.992ZM40.9202 117.773V114.628H37.5202V117.773H40.9202ZM40.9202 114.628C40.9202 113.508 40.6838 112.286 39.8071 111.41L37.4029 113.814C37.3734 113.784 37.4021 113.794 37.4404 113.92C37.4808 114.052 37.5202 114.278 37.5202 114.628H40.9202ZM39.8071 111.41C38.9303 110.533 37.7093 110.297 36.5884 110.297V113.697C36.9391 113.697 37.1648 113.736 37.2971 113.776C37.4226 113.815 37.4324 113.843 37.4029 113.814L39.8071 111.41ZM36.5884 110.297H26.8643V113.697H36.5884V110.297ZM25.1643 111.997V120.405H28.5643V111.997H25.1643ZM52.8135 133L51.1958 133.523L51.5761 134.7H52.8135V133ZM46.9346 114.799V113.099H44.599L45.3169 115.322L46.9346 114.799ZM50.3354 114.799L51.9575 114.29L51.5837 113.099H50.3354V114.799ZM54.6421 128.522L53.0201 129.031L54.6989 134.381L56.2737 129L54.6421 128.522ZM58.6582 114.799V113.099H57.3844L57.0266 114.322L58.6582 114.799ZM62.0933 114.799L63.7248 114.322L63.3671 113.099H62.0933V114.799ZM66.1094 128.522L64.4778 129L66.0526 134.381L67.7314 129.031L66.1094 128.522ZM70.416 114.799V113.099H69.1678L68.794 114.29L70.416 114.799ZM73.8169 114.799L75.4346 115.322L76.1525 113.099H73.8169V114.799ZM67.938 133V134.7H69.1754L69.5557 133.523L67.938 133ZM64.4346 133L62.8082 133.495L63.175 134.7H64.4346V133ZM60.3672 119.636L61.9935 119.141L60.3638 113.786L58.7403 119.143L60.3672 119.636ZM56.3169 133V134.7H57.578L57.9438 133.493L56.3169 133ZM54.4312 132.477L48.5523 114.277L45.3169 115.322L51.1958 133.523L54.4312 132.477ZM46.9346 116.499H50.3354V113.099H46.9346V116.499ZM48.7134 115.308L53.0201 129.031L56.2641 128.013L51.9575 114.29L48.7134 115.308ZM56.2737 129L60.2898 115.277L57.0266 114.322L53.0105 128.045L56.2737 129ZM58.6582 116.499H62.0933V113.099H58.6582V116.499ZM60.4617 115.277L64.4778 129L67.7409 128.045L63.7248 114.322L60.4617 115.277ZM67.7314 129.031L72.038 115.308L68.794 114.29L64.4874 128.013L67.7314 129.031ZM70.416 116.499H73.8169V113.099H70.416V116.499ZM72.1992 114.277L66.3203 132.477L69.5557 133.523L75.4346 115.322L72.1992 114.277ZM67.938 131.3H64.4346V134.7H67.938V131.3ZM66.0609 132.505L61.9935 119.141L58.7408 120.131L62.8082 133.495L66.0609 132.505ZM58.7403 119.143L54.69 132.507L57.9438 133.493L61.9941 120.129L58.7403 119.143ZM56.3169 131.3H52.8135V134.7H56.3169V131.3ZM78.7285 125.292V123.592H77.0285V125.292H78.7285ZM82.2319 125.292H83.9319V123.592H82.2319V125.292ZM82.2319 129.497H80.5319V131.197H82.2319V129.497ZM92.144 129.497V131.197H93.844V129.497H92.144ZM92.144 108.493V106.793H90.444V108.493H92.144ZM95.6475 108.493H97.3475V106.793H95.6475V108.493ZM95.3569 130.864L93.8051 130.17L93.8008 130.179L93.7966 130.189L95.3569 130.864ZM94.605 131.975L93.4029 130.773L93.392 130.783L93.3812 130.795L94.605 131.975ZM93.4941 132.727L92.8344 131.16L92.8269 131.163L92.8194 131.166L93.4941 132.727ZM80.8647 132.727L80.19 134.287L80.1975 134.29L80.205 134.293L80.8647 132.727ZM79.7539 131.975L78.5302 133.155L78.5409 133.166L78.5518 133.177L79.7539 131.975ZM79.002 130.864L77.4352 131.523L77.4458 131.549L77.4572 131.574L79.002 130.864ZM78.7285 126.992H82.2319V123.592H78.7285V126.992ZM80.5319 125.292V129.497H83.9319V125.292H80.5319ZM82.2319 131.197H92.144V127.797H82.2319V131.197ZM93.844 129.497V108.493H90.444V129.497H93.844ZM92.144 110.193H95.6475V106.793H92.144V110.193ZM93.9475 108.493V129.497H97.3475V108.493H93.9475ZM93.9475 129.497C93.9475 129.738 93.9002 129.957 93.8051 130.17L96.9087 131.558C97.201 130.905 97.3475 130.212 97.3475 129.497H93.9475ZM93.7966 130.189C93.6978 130.417 93.5675 130.608 93.4029 130.773L95.8071 133.177C96.2805 132.703 96.6515 132.153 96.9173 131.539L93.7966 130.189ZM93.3812 130.795C93.243 130.938 93.0681 131.061 92.8344 131.16L94.1538 134.293C94.7861 134.027 95.3518 133.649 95.8287 133.155L93.3812 130.795ZM92.8194 131.166C92.6198 131.253 92.4004 131.3 92.144 131.3V134.7C92.8447 134.7 93.5254 134.565 94.1689 134.287L92.8194 131.166ZM92.144 131.3H82.2319V134.7H92.144V131.3ZM82.2319 131.3C81.9757 131.3 81.7446 131.252 81.5244 131.16L80.205 134.293C80.8508 134.565 81.5312 134.7 82.2319 134.7V131.3ZM81.5395 131.166C81.3111 131.067 81.1206 130.937 80.956 130.773L78.5518 133.177C79.0252 133.65 79.5753 134.021 80.19 134.287L81.5395 131.166ZM80.9776 130.795C80.8088 130.62 80.6644 130.41 80.5467 130.154L77.4572 131.574C77.7269 132.161 78.0837 132.692 78.5302 133.155L80.9776 130.795ZM80.5687 130.204C80.476 129.984 80.4285 129.753 80.4285 129.497H77.0285C77.0285 130.197 77.1633 130.878 77.4352 131.523L80.5687 130.204ZM80.4285 129.497V125.292H77.0285V129.497H80.4285ZM105.84 122.233L105.13 123.778L105.155 123.79L105.18 123.8L105.84 122.233ZM104.729 121.481L103.527 122.684L103.538 122.694L103.549 122.705L104.729 121.481ZM103.977 120.371L102.41 121.03L102.413 121.038L102.417 121.045L103.977 120.371ZM103.977 110.646L105.537 111.321L105.541 111.314L105.544 111.306L103.977 110.646ZM104.729 109.536L105.909 110.759L105.92 110.749L105.931 110.738L104.729 109.536ZM105.84 108.784L106.515 110.344L106.524 110.34L106.534 110.335L105.84 108.784ZM120.452 108.784L119.742 110.328L119.767 110.34L119.792 110.35L120.452 108.784ZM121.58 109.536L120.378 110.738L120.388 110.749L120.4 110.759L121.58 109.536ZM122.332 110.646L120.765 111.306L120.768 111.314L120.771 111.321L122.332 110.646ZM122.605 115.158V116.858H124.305V115.158H122.605ZM119.102 115.158H117.402V116.858H119.102V115.158ZM119.102 111.997H120.802V110.297H119.102V111.997ZM107.207 111.997V110.297H105.507V111.997H107.207ZM107.207 119.003H105.507V120.703H107.207V119.003ZM120.452 119.277L119.777 120.837L119.784 120.84L119.792 120.844L120.452 119.277ZM122.332 121.157L120.765 121.816L120.768 121.824L120.771 121.831L122.332 121.157ZM122.332 130.864L123.892 131.539L123.895 131.531L123.898 131.523L122.332 130.864ZM120.452 132.727L119.792 131.16L119.784 131.163L119.777 131.166L120.452 132.727ZM105.498 132.727L104.823 134.287L104.831 134.29L104.838 134.293L105.498 132.727ZM103.635 130.864L102.068 131.523L102.072 131.531L102.075 131.539L103.635 130.864ZM103.362 126.352V124.652H101.662V126.352H103.362ZM106.865 126.352H108.565V124.652H106.865V126.352ZM106.865 129.497H105.165V131.197H106.865V129.497ZM119.102 129.497V131.197H120.802V129.497H119.102ZM119.102 122.507H120.802V120.807H119.102V122.507ZM107.207 120.807C106.951 120.807 106.72 120.759 106.5 120.667L105.18 123.8C105.826 124.072 106.506 124.207 107.207 124.207V120.807ZM106.55 120.689C106.294 120.571 106.084 120.427 105.909 120.258L103.549 122.705C104.012 123.152 104.543 123.508 105.13 123.778L106.55 120.689ZM105.931 120.279C105.766 120.115 105.636 119.924 105.537 119.696L102.417 121.045C102.683 121.66 103.054 122.21 103.527 122.684L105.931 120.279ZM105.544 119.711C105.451 119.491 105.404 119.26 105.404 119.003H102.004C102.004 119.704 102.138 120.385 102.41 121.03L105.544 119.711ZM105.404 119.003V111.997H102.004V119.003H105.404ZM105.404 111.997C105.404 111.74 105.451 111.521 105.537 111.321L102.417 109.972C102.138 110.615 102.004 111.296 102.004 111.997H105.404ZM105.544 111.306C105.642 111.073 105.766 110.898 105.909 110.759L103.549 108.312C103.054 108.789 102.676 109.355 102.41 109.987L105.544 111.306ZM105.931 110.738C106.096 110.573 106.286 110.443 106.515 110.344L105.165 107.223C104.55 107.489 104 107.86 103.527 108.334L105.931 110.738ZM106.534 110.335C106.747 110.24 106.966 110.193 107.207 110.193V106.793C106.491 106.793 105.799 106.94 105.146 107.232L106.534 110.335ZM107.207 110.193H119.102V106.793H107.207V110.193ZM119.102 110.193C119.343 110.193 119.55 110.24 119.742 110.328L121.161 107.239C120.51 106.94 119.817 106.793 119.102 106.793V110.193ZM119.792 110.35C120.031 110.451 120.22 110.581 120.378 110.738L122.782 108.334C122.301 107.853 121.738 107.481 121.111 107.217L119.792 110.35ZM120.4 110.759C120.543 110.898 120.666 111.073 120.765 111.306L123.898 109.987C123.632 109.355 123.254 108.789 122.76 108.312L120.4 110.759ZM120.771 111.321C120.857 111.521 120.905 111.74 120.905 111.997H124.305C124.305 111.296 124.17 110.615 123.892 109.972L120.771 111.321ZM120.905 111.997V115.158H124.305V111.997H120.905ZM122.605 113.458H119.102V116.858H122.605V113.458ZM120.802 115.158V111.997H117.402V115.158H120.802ZM119.102 110.297H107.207V113.697H119.102V110.297ZM105.507 111.997V119.003H108.907V111.997H105.507ZM107.207 120.703H119.102V117.303H107.207V120.703ZM119.102 120.703C119.358 120.703 119.577 120.751 119.777 120.837L121.126 117.716C120.483 117.438 119.802 117.303 119.102 117.303V120.703ZM119.792 120.844C120.031 120.944 120.22 121.074 120.378 121.231L122.782 118.827C122.301 118.346 121.738 117.974 121.111 117.71L119.792 120.844ZM120.378 121.231C120.535 121.388 120.664 121.578 120.765 121.816L123.898 120.497C123.634 119.87 123.263 119.308 122.782 118.827L120.378 121.231ZM120.771 121.831C120.857 122.031 120.905 122.25 120.905 122.507H124.305C124.305 121.806 124.17 121.125 123.892 120.482L120.771 121.831ZM120.905 122.507V129.497H124.305V122.507H120.905ZM120.905 129.497C120.905 129.753 120.857 129.984 120.765 130.204L123.898 131.523C124.17 130.878 124.305 130.197 124.305 129.497H120.905ZM120.771 130.189C120.672 130.417 120.542 130.608 120.378 130.773L122.782 133.177C123.255 132.703 123.626 132.153 123.892 131.539L120.771 130.189ZM120.378 130.773C120.22 130.93 120.031 131.059 119.792 131.16L121.111 134.293C121.738 134.029 122.301 133.658 122.782 133.177L120.378 130.773ZM119.777 131.166C119.577 131.253 119.358 131.3 119.102 131.3V134.7C119.802 134.7 120.483 134.565 121.126 134.287L119.777 131.166ZM119.102 131.3H106.865V134.7H119.102V131.3ZM106.865 131.3C106.609 131.3 106.378 131.252 106.158 131.16L104.838 134.293C105.484 134.565 106.164 134.7 106.865 134.7V131.3ZM106.173 131.166C105.944 131.067 105.754 130.937 105.589 130.773L103.185 133.177C103.659 133.65 104.209 134.021 104.823 134.287L106.173 131.166ZM105.589 130.773C105.425 130.608 105.294 130.417 105.196 130.189L102.075 131.539C102.341 132.153 102.712 132.703 103.185 133.177L105.589 130.773ZM105.202 130.204C105.109 129.984 105.062 129.753 105.062 129.497H101.662C101.662 130.197 101.797 130.878 102.068 131.523L105.202 130.204ZM105.062 129.497V126.352H101.662V129.497H105.062ZM103.362 128.052H106.865V124.652H103.362V128.052ZM105.165 126.352V129.497H108.565V126.352H105.165ZM106.865 131.197H119.102V127.797H106.865V131.197ZM120.802 129.497V122.507H117.402V129.497H120.802ZM119.102 120.807H107.207V124.207H119.102V120.807Z"/></svg>